  0
SECTION
  2
HEADER
  9
$ACADVER
  1
AC1027
  9
$ACADMAINTVER
 70
105
  9
$DWGCODEPAGE
  3
ANSI_1252
  9
$LASTSAVEDBY
  1
ezdxf
  9
$REQUIREDVERSIONS
160
0
  9
$INSBASE
 10
0.0
 20
0.0
 30
0.0
  9
$EXTMIN
 10
1e+20
 20
1e+20
 30
1e+20
  9
$EXTMAX
 10
-1e+20
 20
-1e+20
 30
-1e+20
  9
$LIMMIN
 10
0.0
 20
0.0
  9
$LIMMAX
 10
420.0
 20
297.0
  9
$ORTHOMODE
 70
0
  9
$REGENMODE
 70
1
  9
$FILLMODE
 70
1
  9
$QTEXTMODE
 70
0
  9
$MIRRTEXT
 70
1
  9
$LTSCALE
 40
1.0
  9
$ATTMODE
 70
1
  9
$TEXTSIZE
 40
2.5
  9
$TRACEWID
 40
1.0
  9
$TEXTSTYLE
  7
Standard
  9
$CLAYER
  8
0
  9
$CELTYPE
  6
ByLayer
  9
$CECOLOR
 62
256
  9
$CELTSCALE
 40
1.0
  9
$DISPSILH
 70
0
  9
$DIMSCALE
 40
1.0
  9
$DIMASZ
 40
2.5
  9
$DIMEXO
 40
0.625
  9
$DIMDLI
 40
3.75
  9
$DIMRND
 40
0.0
  9
$DIMDLE
 40
0.0
  9
$DIMEXE
 40
1.25
  9
$DIMTP
 40
0.0
  9
$DIMTM
 40
0.0
  9
$DIMTXT
 40
2.5
  9
$DIMCEN
 40
2.5
  9
$DIMTSZ
 40
0.0
  9
$DIMTOL
 70
0
  9
$DIMLIM
 70
0
  9
$DIMTIH
 70
0
  9
$DIMTOH
 70
0
  9
$DIMSE1
 70
0
  9
$DIMSE2
 70
0
  9
$DIMTAD
 70
1
  9
$DIMZIN
 70
8
  9
$DIMBLK
  1

  9
$DIMASO
 70
1
  9
$DIMSHO
 70
1
  9
$DIMPOST
  1

  9
$DIMAPOST
  1

  9
$DIMALT
 70
0
  9
$DIMALTD
 70
3
  9
$DIMALTF
 40
0.03937007874
  9
$DIMLFAC
 40
1.0
  9
$DIMTOFL
 70
1
  9
$DIMTVP
 40
0.0
  9
$DIMTIX
 70
0
  9
$DIMSOXD
 70
0
  9
$DIMSAH
 70
0
  9
$DIMBLK1
  1

  9
$DIMBLK2
  1

  9
$DIMSTYLE
  2
ISO-25
  9
$DIMCLRD
 70
0
  9
$DIMCLRE
 70
0
  9
$DIMCLRT
 70
0
  9
$DIMTFAC
 40
1.0
  9
$DIMGAP
 40
0.625
  9
$DIMJUST
 70
0
  9
$DIMSD1
 70
0
  9
$DIMSD2
 70
0
  9
$DIMTOLJ
 70
0
  9
$DIMTZIN
 70
8
  9
$DIMALTZ
 70
0
  9
$DIMALTTZ
 70
0
  9
$DIMUPT
 70
0
  9
$DIMDEC
 70
2
  9
$DIMTDEC
 70
2
  9
$DIMALTU
 70
2
  9
$DIMALTTD
 70
3
  9
$DIMTXSTY
  7
Standard
  9
$DIMAUNIT
 70
0
  9
$DIMADEC
 70
0
  9
$DIMALTRND
 40
0.0
  9
$DIMAZIN
 70
0
  9
$DIMDSEP
 70
44
  9
$DIMATFIT
 70
3
  9
$DIMFRAC
 70
0
  9
$DIMLDRBLK
  1

  9
$DIMLUNIT
 70
2
  9
$DIMLWD
 70
-2
  9
$DIMLWE
 70
-2
  9
$DIMTMOVE
 70
0
  9
$DIMFXL
 40
1.0
  9
$DIMFXLON
 70
0
  9
$DIMJOGANG
 40
0.785398163397
  9
$DIMTFILL
 70
0
  9
$DIMTFILLCLR
 70
0
  9
$DIMARCSYM
 70
0
  9
$DIMLTYPE
  6

  9
$DIMLTEX1
  6

  9
$DIMLTEX2
  6

  9
$DIMTXTDIRECTION
 70
0
  9
$LUNITS
 70
2
  9
$LUPREC
 70
4
  9
$SKETCHINC
 40
1.0
  9
$FILLETRAD
 40
10.0
  9
$AUNITS
 70
0
  9
$AUPREC
 70
2
  9
$MENU
  1
.
  9
$ELEVATION
 40
0.0
  9
$PELEVATION
 40
0.0
  9
$THICKNESS
 40
0.0
  9
$LIMCHECK
 70
0
  9
$CHAMFERA
 40
0.0
  9
$CHAMFERB
 40
0.0
  9
$CHAMFERC
 40
0.0
  9
$CHAMFERD
 40
0.0
  9
$SKPOLY
 70
0
  9
$TDCREATE
 40
2459675.6742476854
  9
$TDUCREATE
 40
2458532.153996898
  9
$TDUPDATE
 40
2459675.676689815
  9
$TDUUPDATE
 40
2458532.1544311
  9
$TDINDWG
 40
0.0
  9
$TDUSRTIMER
 40
0.0
  9
$USRTIMER
 70
1
  9
$ANGBASE
 50
0.0
  9
$ANGDIR
 70
0
  9
$PDMODE
 70
0
  9
$PDSIZE
 40
0.0
  9
$PLINEWID
 40
0.0
  9
$SPLFRAME
 70
0
  9
$SPLINETYPE
 70
6
  9
$SPLINESEGS
 70
8
  9
$HANDSEED
  5
33
  9
$SURFTAB1
 70
6
  9
$SURFTAB2
 70
6
  9
$SURFTYPE
 70
6
  9
$SURFU
 70
6
  9
$SURFV
 70
6
  9
$UCSBASE
  2

  9
$UCSNAME
  2

  9
$UCSORG
 10
0.0
 20
0.0
 30
0.0
  9
$UCSXDIR
 10
1.0
 20
0.0
 30
0.0
  9
$UCSYDIR
 10
0.0
 20
1.0
 30
0.0
  9
$UCSORTHOREF
  2

  9
$UCSORTHOVIEW
 70
0
  9
$UCSORGTOP
 10
0.0
 20
0.0
 30
0.0
  9
$UCSORGBOTTOM
 10
0.0
 20
0.0
 30
0.0
  9
$UCSORGLEFT
 10
0.0
 20
0.0
 30
0.0
  9
$UCSORGRIGHT
 10
0.0
 20
0.0
 30
0.0
  9
$UCSORGFRONT
 10
0.0
 20
0.0
 30
0.0
  9
$UCSORGBACK
 10
0.0
 20
0.0
 30
0.0
  9
$PUCSBASE
  2

  9
$PUCSNAME
  2

  9
$PUCSORG
 10
0.0
 20
0.0
 30
0.0
  9
$PUCSXDIR
 10
1.0
 20
0.0
 30
0.0
  9
$PUCSYDIR
 10
0.0
 20
1.0
 30
0.0
  9
$PUCSORTHOREF
  2

  9
$PUCSORTHOVIEW
 70
0
  9
$PUCSORGTOP
 10
0.0
 20
0.0
 30
0.0
  9
$PUCSORGBOTTOM
 10
0.0
 20
0.0
 30
0.0
  9
$PUCSORGLEFT
 10
0.0
 20
0.0
 30
0.0
  9
$PUCSORGRIGHT
 10
0.0
 20
0.0
 30
0.0
  9
$PUCSORGFRONT
 10
0.0
 20
0.0
 30
0.0
  9
$PUCSORGBACK
 10
0.0
 20
0.0
 30
0.0
  9
$USERI1
 70
0
  9
$USERI2
 70
0
  9
$USERI3
 70
0
  9
$USERI4
 70
0
  9
$USERI5
 70
0
  9
$USERR1
 40
0.0
  9
$USERR2
 40
0.0
  9
$USERR3
 40
0.0
  9
$USERR4
 40
0.0
  9
$USERR5
 40
0.0
  9
$WORLDVIEW
 70
1
  9
$SHADEDGE
 70
3
  9
$SHADEDIF
 70
70
  9
$TILEMODE
 70
1
  9
$MAXACTVP
 70
64
  9
$PINSBASE
 10
0.0
 20
0.0
 30
0.0
  9
$PLIMCHECK
 70
0
  9
$PEXTMIN
 10
1e+20
 20
1e+20
 30
1e+20
  9
$PEXTMAX
 10
-1e+20
 20
-1e+20
 30
-1e+20
  9
$PLIMMIN
 10
0.0
 20
0.0
  9
$PLIMMAX
 10
420.0
 20
297.0
  9
$UNITMODE
 70
0
  9
$VISRETAIN
 70
1
  9
$PLINEGEN
 70
0
  9
$PSLTSCALE
 70
1
  9
$TREEDEPTH
 70
3020
  9
$CMLSTYLE
  2
Standard
  9
$CMLJUST
 70
0
  9
$CMLSCALE
 40
20.0
  9
$PROXYGRAPHICS
 70
1
  9
$MEASUREMENT
 70
1
  9
$CELWEIGHT
370
-1
  9
$ENDCAPS
280
0
  9
$JOINSTYLE
280
0
  9
$LWDISPLAY
290
0
  9
$INSUNITS
 70
6
  9
$HYPERLINKBASE
  1

  9
$STYLESHEET
  1

  9
$XEDIT
290
1
  9
$CEPSNTYPE
380
0
  9
$PSTYLEMODE
290
1
  9
$FINGERPRINTGUID
  2
{31496AC3-8889-4558-A4B7-86B61390D38B}
  9
$VERSIONGUID
  2
{DA462144-D637-4221-8D84-BC290E84C272}
  9
$EXTNAMES
290
1
  9
$PSVPSCALE
 40
0.0
  9
$OLESTARTUP
290
0
  9
$SORTENTS
280
127
  9
$INDEXCTL
280
0
  9
$HIDETEXT
280
1
  9
$XCLIPFRAME
280
0
  9
$HALOGAP
280
0
  9
$OBSCOLOR
 70
257
  9
$OBSLTYPE
280
0
  9
$INTERSECTIONDISPLAY
280
0
  9
$INTERSECTIONCOLOR
 70
257
  9
$DIMASSOC
280
2
  9
$PROJECTNAME
  1

  9
$CAMERADISPLAY
290
0
  9
$LENSLENGTH
 40
50.0
  9
$CAMERAHEIGHT
 40
0.0
  9
$STEPSPERSEC
 40
24.0
  9
$STEPSIZE
 40
100.0
  9
$3DDWFPREC
 40
2.0
  9
$PSOLWIDTH
 40
0.005
  9
$PSOLHEIGHT
 40
0.08
  9
$LOFTANG1
 40
1.570796326795
  9
$LOFTANG2
 40
1.570796326795
  9
$LOFTMAG1
 40
0.0
  9
$LOFTMAG2
 40
0.0
  9
$LOFTPARAM
 70
7
  9
$LOFTNORMALS
280
1
  9
$LATITUDE
 40
37.795
  9
$LONGITUDE
 40
-122.394
  9
$NORTHDIRECTION
 40
0.0
  9
$TIMEZONE
 70
-8000
  9
$LIGHTGLYPHDISPLAY
280
1
  9
$TILEMODELIGHTSYNCH
280
1
  9
$CMATERIAL
347
20
  9
$SOLIDHIST
280
0
  9
$SHOWHIST
280
1
  9
$DWFFRAME
280
2
  9
$DGNFRAME
280
2
  9
$REALWORLDSCALE
290
1
  9
$INTERFERECOLOR
 62
256
  9
$CSHADOW
280
0
  9
$SHADOWPLANELOCATION
 40
0.0
  0
ENDSEC
  0
SECTION
  2
CLASSES
  0
CLASS
  1
ACDBDICTIONARYWDFLT
  2
AcDbDictionaryWithDefault
  3
ObjectDBX Classes
 90
0
 91
0
280
0
281
0
  0
CLASS
  1
SUN
  2
AcDbSun
  3
SCENEOE
 90
1153
 91
0
280
0
281
0
  0
CLASS
  1
VISUALSTYLE
  2
AcDbVisualStyle
  3
ObjectDBX Classes
 90
4095
 91
0
280
0
281
0
  0
CLASS
  1
MATERIAL
  2
AcDbMaterial
  3
ObjectDBX Classes
 90
1153
 91
0
280
0
281
0
  0
CLASS
  1
SCALE
  2
AcDbScale
  3
ObjectDBX Classes
 90
1153
 91
0
280
0
281
0
  0
CLASS
  1
TABLESTYLE
  2
AcDbTableStyle
  3
ObjectDBX Classes
 90
4095
 91
0
280
0
281
0
  0
CLASS
  1
MLEADERSTYLE
  2
AcDbMLeaderStyle
  3
ACDB_MLEADERSTYLE_CLASS
 90
4095
 91
0
280
0
281
0
  0
CLASS
  1
DICTIONARYVAR
  2
AcDbDictionaryVar
  3
ObjectDBX Classes
 90
0
 91
0
280
0
281
0
  0
CLASS
  1
CELLSTYLEMAP
  2
AcDbCellStyleMap
  3
ObjectDBX Classes
 90
1152
 91
0
280
0
281
0
  0
CLASS
  1
MENTALRAYRENDERSETTINGS
  2
AcDbMentalRayRenderSettings
  3
SCENEOE
 90
1024
 91
0
280
0
281
0
  0
CLASS
  1
ACDBDETAILVIEWSTYLE
  2
AcDbDetailViewStyle
  3
ObjectDBX Classes
 90
1025
 91
0
280
0
281
0
  0
CLASS
  1
ACDBSECTIONVIEWSTYLE
  2
AcDbSectionViewStyle
  3
ObjectDBX Classes
 90
1025
 91
0
280
0
281
0
  0
CLASS
  1
RASTERVARIABLES
  2
AcDbRasterVariables
  3
ISM
 90
0
 91
0
280
0
281
0
  0
CLASS
  1
LAYOUT
  2
AcDbLayout
  3
ObjectDBX Classes
 90
0
 91
0
280
0
281
0
  0
CLASS
  1
MPOLYGON
  2
AcDbMPolygon
  3
AcMPolygonObj15
 90
1025
 91
0
280
0
281
1
  0
CLASS
  1
ACDBPLACEHOLDER
  2
AcDbPlaceHolder
  3
ObjectDBX Classes
 90
0
 91
0
280
0
281
0
  0
ENDSEC
  0
SECTION
  2
TABLES
  0
TABLE
  2
VPORT
  5
8
330
0
100
AcDbSymbolTable
 70
1
  0
VPORT
  5
23
330
8
100
AcDbSymbolTableRecord
100
AcDbViewportTableRecord
  2
*Active
 70
0
 10
0.0
 20
0.0
 11
1.0
 21
1.0
 12
0.0
 22
0.0
 13
0.0
 23
0.0
 14
0.5
 24
0.5
 15
0.5
 25
0.5
 16
0.0
 26
0.0
 36
1.0
 17
0.0
 27
0.0
 37
0.0
 40
1000.0
 41
1.34
 42
50.0
 43
0.0
 44
0.0
 50
0.0
 51
0.0
 71
0
 72
1000
 73
1
 74
3
 75
0
 76
0
 77
0
 78
0
281
0
 65
0
146
0.0
  0
ENDTAB
  0
TABLE
  2
LTYPE
  5
2
330
0
100
AcDbSymbolTable
 70
3
  0
LTYPE
  5
24
330
2
100
AcDbSymbolTableRecord
100
AcDbLinetypeTableRecord
  2
ByBlock
 70
0
  3

 72
65
 73
0
 40
0.0
  0
LTYPE
  5
25
330
2
100
AcDbSymbolTableRecord
100
AcDbLinetypeTableRecord
  2
ByLayer
 70
0
  3

 72
65
 73
0
 40
0.0
  0
LTYPE
  5
26
330
2
100
AcDbSymbolTableRecord
100
AcDbLinetypeTableRecord
  2
Continuous
 70
0
  3

 72
65
 73
0
 40
0.0
  0
ENDTAB
  0
TABLE
  2
LAYER
  5
1
330
0
100
AcDbSymbolTable
 70
2
  0
LAYER
  5
27
330
1
100
AcDbSymbolTableRecord
100
AcDbLayerTableRecord
  2
0
 70
0
 62
7
  6
Continuous
370
-3
390
13
347
21
  0
LAYER
  5
28
330
1
100
AcDbSymbolTableRecord
100
AcDbLayerTableRecord
  2
Defpoints
 70
0
 62
7
  6
Continuous
290
0
370
-3
390
13
347
21
  0
ENDTAB
  0
TABLE
  2
STYLE
  5
5
330
0
100
AcDbSymbolTable
 70
1
  0
STYLE
  5
29
330
5
100
AcDbSymbolTableRecord
100
AcDbTextStyleTableRecord
  2
Standard
 70
0
 40
0.0
 41
1.0
 50
0.0
 71
0
 42
2.5
  3
txt
  4

  0
ENDTAB
  0
TABLE
  2
VIEW
  5
7
330
0
100
AcDbSymbolTable
 70
0
  0
ENDTAB
  0
TABLE
  2
UCS
  5
6
330
0
100
AcDbSymbolTable
 70
0
  0
ENDTAB
  0
TABLE
  2
APPID
  5
3
330
0
100
AcDbSymbolTable
 70
3
  0
APPID
  5
2A
330
3
100
AcDbSymbolTableRecord
100
AcDbRegAppTableRecord
  2
ACAD
 70
0
  0
APPID
  5
30
330
3
100
AcDbSymbolTableRecord
100
AcDbRegAppTableRecord
  2
HATCHBACKGROUNDCOLOR
 70
0
  0
APPID
  5
31
330
3
100
AcDbSymbolTableRecord
100
AcDbRegAppTableRecord
  2
EZDXF
 70
0
  0
ENDTAB
  0
TABLE
  2
DIMSTYLE
  5
4
330
0
100
AcDbSymbolTable
 70
1
100
AcDbDimStyleTable
  0
DIMSTYLE
105
2B
330
4
100
AcDbSymbolTableRecord
100
AcDbDimStyleTableRecord
  2
Standard
 70
0
 40
1.0
 41
2.5
 42
0.625
 43
3.75
 44
1.25
 45
0.0
 46
0.0
 47
0.0
 48
0.0
 49
2.5
140
2.5
141
2.5
142
0.0
143
0.03937007874
144
1.0
145
0.0
146
1.0
147
0.625
148
0.0
 69
0
 70
0
 71
0
 72
0
 73
0
 74
0
 75
0
 76
0
 77
1
 78
8
 79
3
170
0
171
3
172
1
173
0
174
0
175
0
176
0
177
0
178
0
179
2
271
2
272
2
273
2
274
3
275
0
276
0
277
2
278
44
279
0
280
0
281
0
282
0
283
0
284
8
285
0
286
0
288
0
289
3
290
0
371
-2
372
-2
  0
ENDTAB
  0
TABLE
  2
BLOCK_RECORD
  5
9
330
0
100
AcDbSymbolTable
 70
2
  0
BLOCK_RECORD
  5
17
330
9
100
AcDbSymbolTableRecord
100
AcDbBlockTableRecord
  2
*Model_Space
340
1A
 70
0
280
1
281
0
  0
BLOCK_RECORD
  5
1B
330
9
100
AcDbSymbolTableRecord
100
AcDbBlockTableRecord
  2
*Paper_Space
340
1E
 70
0
280
1
281
0
  0
ENDTAB
  0
ENDSEC
  0
SECTION
  2
BLOCKS
  0
BLOCK
  5
18
330
17
100
AcDbEntity
  8
0
100
AcDbBlockBegin
  2
*Model_Space
 70
0
 10
0.0
 20
0.0
 30
0.0
  3
*Model_Space
  1

  0
ENDBLK
  5
19
330
17
100
AcDbEntity
  8
0
100
AcDbBlockEnd
  0
BLOCK
  5
1C
330
1B
100
AcDbEntity
  8
0
100
AcDbBlockBegin
  2
*Paper_Space
 70
0
 10
0.0
 20
0.0
 30
0.0
  3
*Paper_Space
  1

  0
ENDBLK
  5
1D
330
1B
100
AcDbEntity
  8
0
100
AcDbBlockEnd
  0
ENDSEC
  0
SECTION
  2
ENTITIES
  0
MPOLYGON
  5
2F
330
17
100
AcDbEntity
  8
0
 62
2
100
AcDbMPolygon
 70
1
 10
0.0
 20
0.0
 30
0.0
210
0.0
220
0.0
230
1.0
  2
SOLID
 71
0
 91
1
 92
3
 73
1
 72
0
 93
811
 10
0.104
 20
0.10668835830594027
 10
0.10400114159057247
 20
0.10666221158311598
 10
0.10400455767409633
 20
0.10663626385264019
 10
0.10401022225211327
 20
0.10661071259240952
 10
0.10401809221376422
 20
0.10658575226294258
 10
0.104028107663889
 20
0.10656157282741806
 10
0.10404019237886465
 20
0.10653835830594027
 10
0.10404060214188564
 20
0.10653765080378566
 10
0.10404060214188564
 20
0.10653765080378566
 10
0.10436504306577499
 20
0.1060314303411363
 10
0.10473236941441381
 20
0.10555541308987876
 10
0.10513978561249125
 20
0.10511322182872221
 10
0.10558419097673533
 20
0.1047082219001664
 10
0.10606220331398483
 20
0.10434349559821332
 10
0.10657018466172156
 20
0.10402181871024857
 10
0.1071042689751617
 20
0.10374563939162339
 10
0.10766039155019108
 20
0.10351705953371414
 10
0.1082343199582177
 20
0.1033378187672598
 10
0.10882168625750904
 20
0.10320928122272162
 10
0.10941802023586603
 20
0.10313242514842665
 10
0.11001878343163707
 20
0.10310783546550722
 10
0.1106194036741516
 20
0.103135699316298
 10
0.11121530988069968
 20
0.10321580464006984
 10
0.11180196684523146
 20
0.1033475417869399
 10
0.1123749097540137
 20
0.10352990815767545
 10
0.11292977816555817
 20
0.10376151583407935
 10
0.11346234919621433
 20
0.10404060214188562
 10
0.11396856965886369
 20
0.10436504306577497
 10
0.11444458691012123
 20
0.1047323694144138
 10
0.11488677817127779
 20
0.10513978561249125
 10
0.11529177809983358
 20
0.10558419097673533
 10
0.11565650440178668
 20
0.10606220331398482
 10
0.11597818128975143
 20
0.10657018466172155
 10
0.11625436060837661
 20
0.1071042689751617
 10
0.11648294046628586
 20
0.10766039155019107
 10
0.1166621812327402
 20
0.1082343199582177
 10
0.11679071877727837
 20
0.10882168625750903
 10
0.11686757485157336
 20
0.10941802023586603
 10
0.11689216453449278
 20
0.11001878343163705
 10
0.116864300683702
 20
0.1106194036741516
 10
0.11678419535993016
 20
0.11121530988069966
 10
0.1166524582130601
 20
0.11180196684523146
 10
0.11647009184232456
 20
0.1123749097540137
 10
0.11623848416592066
 20
0.11292977816555817
 10
0.11595939785811438
 20
0.11346234919621433
 10
0.11563495693422503
 20
0.11396856965886369
 10
0.1152676305855862
 20
0.11444458691012123
 10
0.11486021438750875
 20
0.11488677817127779
 10
0.11441580902326468
 20
0.1152917780998336
 10
0.11393779668601518
 20
0.11565650440178668
 10
0.11342981533827845
 20
0.11597818128975143
 10
0.1128957310248383
 20
0.11625436060837661
 10
0.11233960844980893
 20
0.11648294046628586
 10
0.11176568004178232
 20
0.1166621812327402
 10
0.11117831374249097
 20
0.11679071877727837
 10
0.11058197976413399
 20
0.11686757485157336
 10
0.10998121656836295
 20
0.11689216453449278
 10
0.10938059632584841
 20
0.116864300683702
 10
0.10878469011930034
 20
0.11678419535993016
 10
0.10819803315476856
 20
0.1166524582130601
 10
0.10762509024598631
 20
0.11647009184232456
 10
0.10707022183444183
 20
0.11623848416592066
 10
0.10653765080378567
 20
0.11595939785811438
 10
0.10603143034113631
 20
0.11563495693422503
 10
0.10555541308987877
 20
0.1152676305855862
 10
0.10511322182872222
 20
0.11486021438750876
 10
0.10470822190016642
 20
0.11441580902326469
 10
0.10434349559821333
 20
0.11393779668601518
 10
0.10402181871024858
 20
0.11342981533827846
 10
0.10374563939162339
 20
0.11289573102483831
 10
0.10351705953371414
 20
0.11233960844980895
 10
0.1033378187672598
 20
0.11176568004178232
 10
0.10320928122272163
 20
0.11117831374249099
 10
0.10313242514842665
 20
0.11058197976413399
 10
0.10310780987001779
 20
0.11
 10
0.1031078098700178
 20
0.10618392330151717
 10
0.10310895146059028
 20
0.10615777657869288
 10
0.10311236754411414
 20
0.10613182884821709
 10
0.10311803212213108
 20
0.10610627758798642
 10
0.10312590208378203
 20
0.10608131725851948
 10
0.1031359175339068
 20
0.10605713782299496
 10
0.10314800224888246
 20
0.10603392330151717
 10
0.10314817422403082
 20
0.10603362582538095
 10
0.1031481742240308
 20
0.10603362582538094
 10
0.10351993977693517
 20
0.10545154311191433
 10
0.10394102250090442
 20
0.1049040769017994
 10
0.10440821770215242
 20
0.10439539374346428
 10
0.1049179697430975
 20
0.10392936502289518
 10
0.10546639910291139
 20
0.10350953750005146
 10
0.10604933190301517
 20
0.10313910631588076
 10
0.10666233167281564
 20
0.10282089067536708
 10
0.10730073311392521
 20
0.10255731239167859
 10
0.10795967760589972
 20
0.10235037745470707
 10
0.10863415018327369
 20
0.10220166076427362
 10
0.1093190177024756
 20
0.10211229414419
 10
0.11000906790815003
 20
0.10208295772839612
 10
0.11069904910156808
 20
0.10211387478472997
 10
0.11138371010922582
 20
0.10220481001572462
 10
0.11205784024744533
 20
0.10235507134936402
 10
0.11271630897882388
 20
0.10256351520616887
 10
0.11335410495872138
 20
0.10282855520252707
 10
0.11396637417461905
 20
0.1031481742240308
 10
0.11454845688808567
 20
0.10351993977693517
 10
0.11509592309820059
 20
0.10394102250090441
 10
0.11560460625653571
 20
0.10440821770215242
 10
0.11607063497710482
 20
0.1049179697430975
 10
0.11649046249994853
 20
0.10546639910291138
 10
0.11686089368411923
 20
0.10604933190301517
 10
0.11717910932463291
 20
0.10666233167281564
 10
0.11744268760832141
 20
0.10730073311392521
 10
0.11764962254529293
 20
0.10795967760589972
 10
0.11779833923572638
 20
0.10863415018327369
 10
0.11788770585581
 20
0.1093190177024756
 10
0.11791704227160388
 20
0.11000906790815003
 10
0.11788612521527003
 20
0.11069904910156808
 10
0.11779518998427538
 20
0.11138371010922582
 10
0.11764492865063599
 20
0.11205784024744533
 10
0.11743648479383113
 20
0.11271630897882388
 10
0.11717144479747293
 20
0.11335410495872138
 10
0.1168518257759692
 20
0.11396637417461905
 10
0.11648006022306483
 20
0.11454845688808567
 10
0.11605897749909559
 20
0.11509592309820059
 10
0.11559178229784758
 20
0.11560460625653571
 10
0.1150820302569025
 20
0.11607063497710482
 10
0.11453360089708862
 20
0.11649046249994853
 10
0.11395066809698483
 20
0.11686089368411923
 10
0.11333766832718437
 20
0.11717910932463291
 10
0.11269926688607479
 20
0.11744268760832141
 10
0.11204032239410028
 20
0.11764962254529293
 10
0.11136584981672633
 20
0.11779833923572638
 10
0.1106809822975244
 20
0.11788770585581
 10
0.10999093209184999
 20
0.11791704227160388
 10
0.10930095089843192
 20
0.11788612521527003
 10
0.1086162898907742
 20
0.11779518998427538
 10
0.10794215975255467
 20
0.117644928650636
 10
0.10728369102117613
 20
0.11743648479383113
 10
0.10664589504127864
 20
0.11717144479747293
 10
0.10603362582538096
 20
0.11685182577596921
 10
0.10545154311191435
 20
0.11648006022306484
 10
0.10490407690179943
 20
0.11605897749909559
 10
0.1043953937434643
 20
0.1155917822978476
 10
0.1039293650228952
 20
0.11508203025690251
 10
0.10350953750005147
 20
0.11453360089708864
 10
0.10313910631588077
 20
0.11395066809698484
 10
0.1028208906753671
 20
0.11333766832718438
 10
0.1025573123916786
 20
0.1126992668860748
 10
0.10235037745470708
 20
0.11204032239410029
 10
0.10220166076427362
 20
0.11136584981672634
 10
0.10211229414419001
 20
0.11068098229752442
 10
0.10208295253536263
 20
0.11
 10
0.10208295253536263
 20
0.1056045148343089
 10
0.10208409412593511
 20
0.1055783681114846
 10
0.10208751020945897
 20
0.10555242038100882
 10
0.10209317478747591
 20
0.10552686912077815
 10
0.10210104474912686
 20
0.1055019087913112
 10
0.10211106019925163
 20
0.10547772935578668
 10
0.10212311213924934
 20
0.105454571616564
 10
0.10212311213924935
 20
0.10545457161656402
 10
0.10254924626252161
 20
0.10478535233182161
 10
0.10303208512062421
 20
0.10415581966452438
 10
0.10356795401830089
 20
0.10357076473839269
 10
0.10415277466967385
 20
0.10303464017468023
 10
0.10478209623646177
 20
0.1025515262050377
 10
0.10545112920154666
 20
0.10212509961848629
 10
0.10615478182009107
 20
0.10175860577883303
 10
0.10688769887079079
 20
0.10145483392549276
 10
0.1076443024123426
 20
0.10121609594569182
 10
0.10841883423494558
 20
0.10104420877961046
 10
0.1092053996837546
 20
0.10094048059237085
 10
0.10999801252076306
 20
0.10090570081811068
 10
0.11079064048368857
 20
0.10094013415191266
 10
0.11157725119513144
 20
0.10104351853531517
 10
0.11235185807260906
 20
0.10121506715073529
 10
0.11310856589006338
 20
0.10145347440962581
 10
0.11384161564409091
 20
0.10175692588879232
 10
0.11454542838343597
 20
0.10212311213924934
 10
0.11521464766817838
 20
0.10254924626252161
 10
0.11584418033547561
 20
0.1030320851206242
 10
0.1164292352616073
 20
0.10356795401830088
 10
0.11696535982531976
 20
0.10415277466967383
 10
0.11744847379496229
 20
0.10478209623646176
 10
0.11787490038151371
 20
0.10545112920154665
 10
0.11824139422116696
 20
0.10615478182009105
 10
0.11854516607450724
 20
0.10688769887079078
 10
0.11878390405430816
 20
0.10764430241234259
 10
0.11895579122038955
 20
0.10841883423494557
 10
0.11905951940762916
 20
0.1092053996837546
 10
0.11909429918188932
 20
0.10999801252076305
 10
0.11905986584808734
 20
0.11079064048368857
 10
0.11895648146468484
 20
0.11157725119513144
 10
0.11878493284926471
 20
0.11235185807260906
 10
0.1185465255903742
 20
0.11310856589006338
 10
0.11824307411120769
 20
0.11384161564409091
 10
0.11787688786075066
 20
0.11454542838343597
 10
0.11745075373747839
 20
0.11521464766817838
 10
0.1169679148793758
 20
0.11584418033547561
 10
0.11643204598169912
 20
0.1164292352616073
 10
0.11584722533032617
 20
0.11696535982531976
 10
0.11521790376353824
 20
0.11744847379496229
 10
0.11454887079845336
 20
0.11787490038151371
 10
0.11384521817990895
 20
0.11824139422116696
 10
0.11311230112920923
 20
0.11854516607450724
 10
0.11235569758765741
 20
0.11878390405430816
 10
0.11158116576505443
 20
0.11895579122038953
 10
0.1107946003162454
 20
0.11905951940762916
 10
0.11000198747923695
 20
0.11909429918188932
 10
0.10920935951631144
 20
0.11905986584808734
 10
0.10842274880486857
 20
0.11895648146468484
 10
0.10764814192739096
 20
0.11878493284926471
 10
0.10689143410993664
 20
0.1185465255903742
 10
0.1061583843559091
 20
0.1182430741112077
 10
0.10545457161656403
 20
0.11787688786075066
 10
0.10478535233182162
 20
0.1174507537374784
 10
0.1041558196645244
 20
0.11696791487937581
 10
0.10357076473839272
 20
0.11643204598169914
 10
0.10303464017468025
 20
0.11584722533032617
 10
0.10255152620503771
 20
0.11521790376353824
 10
0.10212509961848629
 20
0.11454887079845337
 10
0.10175860577883304
 20
0.11384521817990896
 10
0.10145483392549276
 20
0.11311230112920924
 10
0.10121609594569184
 20
0.11235569758765743
 10
0.10104420877961047
 20
0.11158116576505445
 10
0.10094048059237086
 20
0.11079460031624541
 10
0.10090570081811068
 20
0.11000198747923697
 10
0.10090570060093762
 20
0.11
 10
0.10090570060093762
 20
0.10493897966683916
 10
0.1009068421915101
 20
0.10491283294401486
 10
0.10091025827503396
 20
0.10488688521353907
 10
0.1009159228530509
 20
0.1048613339533084
 10
0.10092379281470185
 20
0.10483637362384146
 10
0.10093380826482662
 20
0.10481219418831694
 10
0.10094568364332421
 20
0.10478934283396213
 10
0.10094568364332421
 20
0.10478934283396212
 10
0.10143427674614365
 20
0.10402003529048096
 10
0.10198806017505005
 20
0.10329623888924065
 10
0.10260281930376584
 20
0.10262346215789485
 10
0.10327387544411981
 20
0.1020068253336028
 10
0.10399612145368907
 20
0.10145102139493284
 10
0.10476406060423674
 20
0.10096028034546188
 10
0.10557184841513281
 20
0.1005383370208939
 10
0.10641333713338076
 20
0.10018840266470525
 10
0.10728212252172993
 20
0.09991314048864261
 10
0.10817159259878803
 20
0.09971464540407372
 10
0.10907497796019192
 20
0.09959442807844673
 10
0.10998540329786233
 20
0.09955340343819886
 10
0.11089593972524973
 20
0.09959188370561378
 10
0.11179965751034479
 20
0.09970957602262141
 10
0.11268967881512322
 20
0.09990558467962478
 10
0.11355923004004607
 20
0.10017841793239082
 10
0.11440169337524234
 20
0.10052599935512477
 10
0.11521065716603786
 20
0.10094568364332421
 10
0.11597996470951903
 20
0.10143427674614364
 10
0.11670376111075934
 20
0.10198806017505004
 10
0.11737653784210514
 20
0.10260281930376583
 10
0.1179931746663972
 20
0.1032738754441198
 10
0.11854897860506715
 20
0.10399612145368906
 10
0.11903971965453812
 20
0.10476406060423674
 10
0.1194616629791061
 20
0.10557184841513281
 10
0.11981159733529476
 20
0.10641333713338075
 10
0.12008685951135738
 20
0.10728212252172992
 10
0.12028535459592628
 20
0.10817159259878802
 10
0.12040557192155327
 20
0.10907497796019192
 10
0.12044659656180114
 20
0.10998540329786233
 10
0.12040811629438622
 20
0.11089593972524973
 10
0.12029042397737859
 20
0.11179965751034479
 10
0.12009441532037522
 20
0.11268967881512322
 10
0.11982158206760918
 20
0.11355923004004607
 10
0.11947400064487523
 20
0.11440169337524234
 10
0.1190543163566758
 20
0.11521065716603787
 10
0.11856572325385636
 20
0.11597996470951903
 10
0.11801193982494997
 20
0.11670376111075934
 10
0.11739718069623417
 20
0.11737653784210514
 10
0.1167261245558802
 20
0.1179931746663972
 10
0.11600387854631095
 20
0.11854897860506715
 10
0.11523593939576326
 20
0.11903971965453812
 10
0.1144281515848672
 20
0.1194616629791061
 10
0.11358666286661925
 20
0.11981159733529476
 10
0.11271787747827008
 20
0.12008685951135738
 10
0.11182840740121198
 20
0.12028535459592628
 10
0.1109250220398081
 20
0.12040557192155327
 10
0.11001459670213769
 20
0.12044659656180114
 10
0.10910406027475028
 20
0.12040811629438622
 10
0.10820034248965521
 20
0.12029042397737859
 10
0.1073103211848768
 20
0.12009441532037522
 10
0.10644076995995394
 20
0.11982158206760918
 10
0.10559830662475768
 20
0.11947400064487523
 10
0.10478934283396214
 20
0.1190543163566758
 10
0.10402003529048098
 20
0.11856572325385636
 10
0.10329623888924067
 20
0.11801193982494998
 10
0.10262346215789486
 20
0.11739718069623417
 10
0.10200682533360281
 20
0.11672612455588022
 10
0.10145102139493287
 20
0.11600387854631096
 10
0.1009602803454619
 20
0.11523593939576329
 10
0.10053833702089392
 20
0.11442815158486722
 10
0.10018840266470525
 20
0.11358666286661927
 10
0.09991314048864262
 20
0.1127178774782701
 10
0.09971464540407372
 20
0.111828407401212
 10
0.09959442807844673
 20
0.11092502203980811
 10
0.09955340343819886
 20
0.1100145967021377
 10
0.09955339324044651
 20
0.11
 10
0.09955339324044651
 20
0.1053739386995502
 10
0.09955225164987404
 20
0.1053477919767259
 10
0.09954883556635018
 20
0.10532184424625012
 10
0.09954317098833323
 20
0.10529629298601945
 10
0.09953530102668229
 20
0.1052713326565525
 10
0.09952528557655752
 20
0.10524715322102798
 10
0.09951320086158186
 20
0.1052239386995502
 10
0.09949913885373321
 20
0.10520186576864488
 10
0.09948320657338221
 20
0.10518110241664423
 10
0.09946552527480249
 20
0.10516180666519423
 10
0.09944622952335248
 20
0.10514412536661451
 10
0.09942546617135184
 20
0.1051281930862635
 10
0.09940339324044652
 20
0.10511413107841487
 10
0.09938017871896873
 20
0.1051020463634392
 10
0.09935599928344423
 20
0.10509203091331443
 10
0.09933103895397728
 20
0.10508416095166348
 10
0.0993054876937466
 20
0.10507849637364654
 10
0.09927953996327081
 20
0.10507508029012268
 10
0.09925339324044652
 20
0.1050739386995502
 10
0.09922724651762223
 20
0.10507508029012268
 10
0.09920129878714644
 20
0.10507849637364654
 10
0.09917574752691577
 20
0.10508416095166348
 10
0.09915078719744883
 20
0.10509203091331443
 10
0.0991266077619243
 20
0.1051020463634392
 10
0.09910339324044652
 20
0.10511413107841486
 10
0.09908132030954121
 20
0.10512819308626349
 10
0.09906055695754055
 20
0.10514412536661451
 10
0.09904126120609055
 20
0.10516180666519423
 10
0.09902357990751083
 20
0.10518110241664423
 10
0.09900764762715983
 20
0.10520186576864488
 10
0.0989935856193112
 20
0.1052239386995502
 10
0.09898150090433552
 20
0.10524715322102798
 10
0.0989778392209708
 20
0.1052553217431284
 10
0.09897783922097078
 20
0.10525532174312842
 10
0.09860625591284
 20
0.10623402128573374
 10
0.09832138587694329
 20
0.10724138220031475
 10
0.09812539714626305
 20
0.10826973786205032
 10
0.09801978131338099
 20
0.10931126186341655
 10
0.09800534217855791
 20
0.11035802757787364
 10
0.09808218963232843
 20
0.11140206848628013
 10
0.09824973881916757
 20
0.11243543880691395
 10
0.09850671458859453
 20
0.11345027396766899
 10
0.09885116119983776
 20
0.11443885046019768
 10
0.09928045720620315
 20
0.11539364462047308
 10
0.09979133540586625
 20
0.11630738988841502
 10
0.10037990770725091
 20
0.11717313211079998
 10
0.10104169471975395
 20
0.11798428246656616
 10
0.10177165984461227
 20
0.1187346676117202
 10
0.10256424760646073
 20
0.11941857666221255
 10
0.10341342593385405
 20
0.12003080465721339
 10
0.10431273206697292
 20
0.12056669217200737
 10
0.10525532174312839
 20
0.1210221607790292
 10
0.10623402128573371
 20
0.12139374408716
 10
0.10724138220031472
 20
0.12167861412305671
 10
0.10826973786205031
 20
0.12187460285373695
 10
0.10931126186341654
 20
0.12198021868661901
 10
0.11035802757787362
 20
0.12199465782144209
 10
0.11140206848628012
 20
0.12191781036767158
 10
0.11243543880691392
 20
0.12175026118083243
 10
0.11345027396766896
 20
0.12149328541140547
 10
0.11443885046019767
 20
0.12114883880016224
 10
0.11539364462047307
 20
0.12071954279379685
 10
0.116307389888415
 20
0.12020866459413376
 10
0.11717313211079997
 20
0.1196200922927491
 10
0.11798428246656614
 20
0.11895830528024606
 10
0.11873466761172019
 20
0.11822834015538775
 10
0.11941857666221253
 20
0.11743575239353929
 10
0.12003080465721337
 20
0.11658657406614596
 10
0.12056669217200737
 20
0.1156872679330271
 10
0.1210221607790292
 20
0.11474467825687162
 10
0.12139374408715999
 20
0.1137659787142663
 10
0.12167861412305671
 20
0.11275861779968528
 10
0.12187460285373695
 20
0.1117302621379497
 10
0.12198021868661901
 20
0.11068873813658348
 10
0.12199465782144209
 20
0.1096419724221264
 10
0.12191781036767158
 20
0.1085979315137199
 10
0.12175026118083243
 20
0.10756456119308608
 10
0.12149328541140547
 20
0.10654972603233104
 10
0.12114883880016224
 20
0.10556114953980233
 10
0.12071954279379685
 20
0.10460635537952694
 10
0.12020866459413376
 20
0.103692610111585
 10
0.1196200922927491
 20
0.10282686788920004
 10
0.11895830528024606
 20
0.10201571753343386
 10
0.11822834015538775
 20
0.10126533238827981
 10
0.11743575239353929
 20
0.10058142333778745
 10
0.11658657406614595
 20
0.09996919534278663
 10
0.1156872679330271
 20
0.09943330782799263
 10
0.11474467825687162
 20
0.0989778392209708
 10
0.1137659787142663
 20
0.09860625591284002
 10
0.1127586177996853
 20
0.09832138587694329
 10
0.1117302621379497
 20
0.09812539714626305
 10
0.11068873813658348
 20
0.09801978131338099
 10
0.1096419724221264
 20
0.09800534217855791
 10
0.1085979315137199
 20
0.09808218963232843
 10
0.10756456119308609
 20
0.09824973881916756
 10
0.10654972603233105
 20
0.09850671458859453
 10
0.10556114953980235
 20
0.09885116119983775
 10
0.10460635537952695
 20
0.09928045720620314
 10
0.10369261011158501
 20
0.09979133540586624
 10
0.10282686788920005
 20
0.1003799077072509
 10
0.10201571753343387
 20
0.10104169471975392
 10
0.10126533238827982
 20
0.10177165984461224
 10
0.10058142333778747
 20
0.1025642476064607
 10
0.09996919534278663
 20
0.10341342593385403
 10
0.09984963409276565
 20
0.10359921317733088
 10
0.09984963409276565
 20
0.10359921317733088
 10
0.09983665308969208
 20
0.10362193866748379
 10
0.09982570214022786
 20
0.10364570904925013
 10
0.09981686458771076
 20
0.10367034341567172
 10
0.09981020769125172
 20
0.10369565428434546
 10
0.09980578211385234
 20
0.10372144902427763
 10
0.09980362153682884
 20
0.10374753132192203
 10
0.09980339324044651
 20
0.1037592328478976
 10
0.09980339324044651
 20
0.11
 10
0.09984219440760636
 20
0.11088869283563468
 10
0.09995830260877504
 20
0.11177062218218277
 10
0.10015083419043361
 20
0.11263907602479355
 10
0.10041832387099188
 20
0.11348744490533796
 10
0.10075873589246613
 20
0.11430927222437595
 10
0.10116947951382656
 20
0.11509830337977674
 10
0.10164742872810081
 20
0.11584853336801768
 10
0.10218894605317463
 20
0.116554252485887
 10
0.10278991021522714
 20
0.11721008978477285
 10
0.10344574751411299
 20
0.11781105394682535
 10
0.10415146663198231
 20
0.11835257127189919
 10
0.10490169662022325
 20
0.11883052048617344
 10
0.10569072777562402
 20
0.11924126410753386
 10
0.10651255509466202
 20
0.11958167612900812
 10
0.10736092397520644
 20
0.1198491658095664
 10
0.10822937781781722
 20
0.12004169739122496
 10
0.1091113071643653
 20
0.12015780559239364
 10
0.10999999999999999
 20
0.12019660675955349
 10
0.11088869283563466
 20
0.12015780559239364
 10
0.11177062218218276
 20
0.12004169739122497
 10
0.11263907602479352
 20
0.11984916580956641
 10
0.11348744490533795
 20
0.11958167612900814
 10
0.11430927222437594
 20
0.11924126410753388
 10
0.11509830337977672
 20
0.11883052048617346
 10
0.11584853336801766
 20
0.1183525712718992
 10
0.11655425248588698
 20
0.11781105394682537
 10
0.11721008978477285
 20
0.11721008978477288
 10
0.11781105394682534
 20
0.11655425248588701
 10
0.11835257127189917
 20
0.1158485333680177
 10
0.11883052048617343
 20
0.11509830337977676
 10
0.11924126410753386
 20
0.11430927222437598
 10
0.11958167612900812
 20
0.11348744490533799
 10
0.1198491658095664
 20
0.11263907602479356
 10
0.12004169739122496
 20
0.11177062218218278
 10
0.12015780559239364
 20
0.1108886928356347
 10
0.12019660675955349
 20
0.11000000000000003
 10
0.12015780559239364
 20
0.10911130716436535
 10
0.12004169739122497
 20
0.10822937781781726
 10
0.11984916580956641
 20
0.10736092397520648
 10
0.11958167612900814
 20
0.10651255509466205
 10
0.11924126410753388
 20
0.10569072777562406
 10
0.11883052048617346
 20
0.10490169662022328
 10
0.1183525712718992
 20
0.10415146663198234
 10
0.11781105394682537
 20
0.10344574751411302
 10
0.11721008978477288
 20
0.10278991021522715
 10
0.11655425248588701
 20
0.10218894605317466
 10
0.1158485333680177
 20
0.10164742872810083
 10
0.11509830337977676
 20
0.10116947951382657
 10
0.11430927222437598
 20
0.10075873589246614
 10
0.11348744490533799
 20
0.10041832387099188
 10
0.11263907602479357
 20
0.10015083419043361
 10
0.1117706221821828
 20
0.09995830260877504
 10
0.11088869283563471
 20
0.09984219440760636
 10
0.11000000000000003
 20
0.09980339324044651
 10
0.10911130716436536
 20
0.09984219440760636
 10
0.10822937781781726
 20
0.09995830260877503
 10
0.1073609239752065
 20
0.1001508341904336
 10
0.10651255509466206
 20
0.10041832387099187
 10
0.10569072777562408
 20
0.10075873589246612
 10
0.10490169662022329
 20
0.10116947951382654
 10
0.10415146663198235
 20
0.10164742872810079
 10
0.10344574751411303
 20
0.10218894605317462
 10
0.10278991021522717
 20
0.10278991021522711
 10
0.10218894605317466
 20
0.10344574751411298
 10
0.10164742872810083
 20
0.1041514666319823
 10
0.10119669366229733
 20
0.10485484821083615
 10
0.10119669366229733
 20
0.10485484821083615
 10
0.10118448576910954
 20
0.10487799819328542
 10
0.10117434198455597
 20
0.10490212407106046
 10
0.10116633950896203
 20
0.10492704223166381
 10
0.10116053924599903
 20
0.10495256303284728
 10
0.10115698533917042
 20
0.10497849224590397
 10
0.10115570483585305
 20
0.10500463253386604
 10
0.10115570060093762
 20
0.10500622656376743
 10
0.10115570060093762
 20
0.11
 10
0.10118935583031805
 20
0.11077083148320795
 10
0.10129006538184215
 20
0.1115357964733879
 10
0.10145706279501275
 20
0.11228907312506613
 10
0.10168907711867983
 20
0.11302492854808244
 10
0.1019843425837462
 20
0.11373776243834606
 10
0.10234061204173653
 20
0.11442214969953118
 10
0.10275517406695414
 20
0.1150728817313359
 10
0.10322487359206774
 20
0.1156850060700754
 10
0.10374613592007888
 20
0.11625386407992111
 10
0.10431499392992459
 20
0.11677512640793225
 10
0.10492711826866409
 20
0.11724482593304585
 10
0.1055778503004688
 20
0.11765938795826347
 10
0.10626223756165393
 20
0.1180156574162538
 10
0.10697507145191755
 20
0.11831092288132017
 10
0.10771092687493386
 20
0.11854293720498724
 10
0.10846420352661208
 20
0.11870993461815785
 10
0.10922916851679204
 20
0.11881064416968196
 10
0.10999999999999999
 20
0.11884429939906238
 10
0.11077083148320793
 20
0.11881064416968196
 10
0.11153579647338789
 20
0.11870993461815785
 10
0.11228907312506611
 20
0.11854293720498725
 10
0.11302492854808242
 20
0.11831092288132017
 10
0.11373776243834605
 20
0.1180156574162538
 10
0.11442214969953117
 20
0.11765938795826349
 10
0.11507288173133588
 20
0.11724482593304586
 10
0.1156850060700754
 20
0.11677512640793228
 10
0.11625386407992111
 20
0.11625386407992114
 10
0.11677512640793225
 20
0.11568500607007542
 10
0.11724482593304585
 20
0.11507288173133592
 10
0.11765938795826346
 20
0.11442214969953121
 10
0.11801565741625379
 20
0.11373776243834607
 10
0.11831092288132017
 20
0.11302492854808247
 10
0.11854293720498724
 20
0.11228907312506614
 10
0.11870993461815785
 20
0.11153579647338793
 10
0.11881064416968196
 20
0.11077083148320797
 10
0.11884429939906238
 20
0.11000000000000001
 10
0.11881064416968196
 20
0.10922916851679207
 10
0.11870993461815785
 20
0.10846420352661211
 10
0.11854293720498725
 20
0.1077109268749339
 10
0.11831092288132017
 20
0.10697507145191758
 10
0.1180156574162538
 20
0.10626223756165395
 10
0.11765938795826349
 20
0.10557785030046883
 10
0.11724482593304586
 20
0.10492711826866412
 10
0.11677512640793226
 20
0.1043149939299246
 10
0.11625386407992114
 20
0.10374613592007889
 10
0.11568500607007542
 20
0.10322487359206775
 10
0.11507288173133592
 20
0.10275517406695416
 10
0.11442214969953121
 20
0.10234061204173654
 10
0.11373776243834607
 20
0.10198434258374621
 10
0.11302492854808247
 20
0.10168907711867985
 10
0.11228907312506614
 20
0.10145706279501276
 10
0.11153579647338793
 20
0.10129006538184215
 10
0.11077083148320797
 20
0.10118935583031805
 10
0.11000000000000003
 20
0.10115570060093762
 10
0.10922916851679208
 20
0.10118935583031805
 10
0.10846420352661212
 20
0.10129006538184215
 10
0.1077109268749339
 20
0.10145706279501275
 10
0.10697507145191759
 20
0.10168907711867982
 10
0.10626223756165397
 20
0.10198434258374618
 10
0.10557785030046883
 20
0.10234061204173651
 10
0.10492711826866412
 20
0.10275517406695413
 10
0.10431499392992462
 20
0.10322487359206772
 10
0.1037461359200789
 20
0.10374613592007886
 10
0.10322487359206776
 20
0.10431499392992456
 10
0.10275517406695417
 20
0.10492711826866408
 10
0.1023742871801161
 20
0.10552002948124503
 10
0.1023742871801161
 20
0.10552002948124503
 10
0.10236202718069061
 20
0.10554315191099567
 10
0.10235182908680339
 20
0.10556725488227627
 10
0.10234377051210666
 20
0.10559215495692159
 10
0.1023379127872198
 20
0.10561766263032855
 10
0.1023343004929662
 20
0.10564358377370053
 10
0.10233296112108625
 20
0.10566972111148489
 10
0.10233295253536263
 20
0.10567199077235295
 10
0.10233295253536263
 20
0.11
 10
0.1023621279657105
 20
0.11066822721646202
 10
0.10244943221411253
 20
0.11133136882032013
 10
0.10259420084252265
 20
0.11198437790355315
 10
0.10279533207426496
 20
0.11262228467273998
 10
0.10305129517921956
 20
0.11324023427218848
 10
0.10336014212360296
 20
0.11383352373231868
 10
0.10371952239568157
 20
0.11439763776210102
 10
0.10412670089458509
 20
0.11492828311314748
 10
0.10457857874607579
 20
0.1154214212539242
 10
0.1050717168868525
 20
0.1158732991054149
 10
0.10560236223789897
 20
0.11628047760431842
 10
0.10616647626768132
 20
0.11663985787639702
 10
0.10675976572781151
 20
0.11694870482078044
 10
0.10737771532726001
 20
0.11720466792573503
 10
0.10801562209644684
 20
0.11740579915747734
 10
0.10866863117967986
 20
0.11755056778588746
 10
0.10933177278353796
 20
0.1176378720342895
 10
0.10999999999999999
 20
0.11766704746463737
 10
0.11066822721646201
 20
0.1176378720342895
 10
0.11133136882032012
 20
0.11755056778588747
 10
0.11198437790355313
 20
0.11740579915747736
 10
0.11262228467273996
 20
0.11720466792573504
 10
0.11324023427218846
 20
0.11694870482078046
 10
0.11383352373231867
 20
0.11663985787639704
 10
0.114397637762101
 20
0.11628047760431844
 10
0.11492828311314748
 20
0.11587329910541491
 10
0.1154214212539242
 20
0.11542142125392423
 10
0.11587329910541488
 20
0.11492828311314751
 10
0.11628047760431842
 20
0.11439763776210103
 10
0.11663985787639702
 20
0.1138335237323187
 10
0.11694870482078044
 20
0.11324023427218849
 10
0.11720466792573503
 20
0.11262228467273999
 10
0.11740579915747734
 20
0.11198437790355316
 10
0.11755056778588746
 20
0.11133136882032016
 10
0.1176378720342895
 20
0.11066822721646204
 10
0.11766704746463737
 20
0.11000000000000001
 10
0.1176378720342895
 20
0.10933177278353799
 10
0.11755056778588747
 20
0.10866863117967988
 10
0.11740579915747736
 20
0.10801562209644687
 10
0.11720466792573504
 20
0.10737771532726004
 10
0.11694870482078046
 20
0.10675976572781154
 10
0.11663985787639704
 20
0.10616647626768133
 10
0.11628047760431844
 20
0.105602362237899
 10
0.11587329910541491
 20
0.10507171688685252
 10
0.11542142125392423
 20
0.1045785787460758
 10
0.11492828311314751
 20
0.10412670089458512
 10
0.11439763776210103
 20
0.10371952239568158
 10
0.1138335237323187
 20
0.10336014212360298
 10
0.1132402342721885
 20
0.10305129517921956
 10
0.11262228467273999
 20
0.10279533207426497
 10
0.11198437790355316
 20
0.10259420084252266
 10
0.11133136882032016
 20
0.10244943221411254
 10
0.11066822721646204
 20
0.1023621279657105
 10
0.11000000000000003
 20
0.10233295253536263
 10
0.109331772783538
 20
0.1023621279657105
 10
0.10866863117967988
 20
0.10244943221411253
 10
0.10801562209644688
 20
0.10259420084252265
 10
0.10737771532726005
 20
0.10279533207426496
 10
0.10675976572781154
 20
0.10305129517921954
 10
0.10616647626768135
 20
0.10336014212360296
 10
0.105602362237899
 20
0.10371952239568155
 10
0.10507171688685253
 20
0.10412670089458508
 10
0.10457857874607582
 20
0.10457857874607578
 10
0.10412670089458512
 20
0.10507171688685249
 10
0.1037195223956816
 20
0.10560236223789896
 10
0.10339954398424366
 20
0.10609902612043248
 10
0.10339954398424366
 20
0.10609902612043248
 10
0.10338722337910224
 20
0.10612211631385816
 10
0.10337696210054129
 20
0.10614619245361893
 10
0.10336883824308657
 20
0.10617107130575366
 10
0.10336291363419864
 20
0.10619656352717532
 10
0.10335923336372851
 20
0.10622247510668627
 10
0.10335782544075667
 20
0.1062486088415206
 10
0.10335780987001779
 20
0.10625166534293215
 10
0.10335780987001779
 20
0.11
 10
0.1033830854087944
 20
0.11057890501424976
 10
0.10345871966301236
 20
0.11115340421178868
 10
0.10358413701032784
 20
0.11171912530683138
 10
0.10375838294899872
 20
0.11227176282025286
 10
0.10398013136221915
 20
0.11280711084688431
 10
0.10424769461066914
 20
0.1133210950649911
 10
0.1045590363764689
 20
0.11380980374432129
 10
0.1049117871607874
 20
0.11426951751673478
 10
0.10530326231715922
 20
0.11469673768284078
 10
0.1057304824832652
 20
0.11508821283921258
 10
0.10619019625567871
 20
0.11544096362353108
 10
0.1066789049350089
 20
0.11575230538933085
 10
0.10719288915311569
 20
0.11601986863778085
 10
0.10772823717974714
 20
0.11624161705100128
 10
0.1082808746931686
 20
0.11641586298967216
 10
0.1088465957882113
 20
0.11654128033698764
 10
0.10942109498575023
 20
0.1166169145912056
 10
0.10999999999999999
 20
0.11664219012998221
 10
0.11057890501424975
 20
0.1166169145912056
 10
0.11115340421178867
 20
0.11654128033698764
 10
0.11171912530683137
 20
0.11641586298967216
 10
0.11227176282025285
 20
0.11624161705100128
 10
0.1128071108468843
 20
0.11601986863778085
 10
0.11332109506499109
 20
0.11575230538933086
 10
0.11380980374432127
 20
0.1154409636235311
 10
0.11426951751673478
 20
0.1150882128392126
 10
0.11469673768284076
 20
0.11469673768284079
 10
0.11508821283921258
 20
0.1142695175167348
 10
0.11544096362353108
 20
0.1138098037443213
 10
0.11575230538933085
 20
0.11332109506499112
 10
0.11601986863778085
 20
0.11280711084688433
 10
0.11624161705100126
 20
0.11227176282025288
 10
0.11641586298967216
 20
0.1117191253068314
 10
0.11654128033698764
 20
0.1111534042117887
 10
0.1166169145912056
 20
0.11057890501424977
 10
0.11664219012998221
 20
0.11000000000000001
 10
0.1166169145912056
 20
0.10942109498575026
 10
0.11654128033698764
 20
0.10884659578821133
 10
0.11641586298967216
 20
0.10828087469316863
 10
0.11624161705100128
 20
0.10772823717974715
 10
0.11601986863778085
 20
0.1071928891531157
 10
0.11575230538933086
 20
0.10667890493500891
 10
0.1154409636235311
 20
0.10619019625567873
 10
0.1150882128392126
 20
0.10573048248326522
 10
0.11469673768284079
 20
0.10530326231715924
 10
0.1142695175167348
 20
0.10491178716078742
 10
0.1138098037443213
 20
0.10455903637646892
 10
0.11332109506499112
 20
0.10424769461066916
 10
0.11280711084688433
 20
0.10398013136221915
 10
0.11227176282025288
 20
0.10375838294899874
 10
0.1117191253068314
 20
0.10358413701032784
 10
0.1111534042117887
 20
0.10345871966301236
 10
0.11057890501424979
 20
0.1033830854087944
 10
0.11000000000000001
 20
0.10335780987001779
 10
0.10942109498575026
 20
0.1033830854087944
 10
0.10884659578821133
 20
0.10345871966301236
 10
0.10828087469316863
 20
0.10358413701032784
 10
0.10772823717974717
 20
0.10375838294899872
 10
0.10719288915311571
 20
0.10398013136221913
 10
0.10667890493500892
 20
0.10424769461066913
 10
0.10619019625567873
 20
0.10455903637646889
 10
0.10573048248326523
 20
0.10491178716078739
 10
0.10530326231715924
 20
0.10530326231715921
 10
0.10491178716078742
 20
0.10573048248326519
 10
0.10455903637646892
 20
0.10619019625567869
 10
0.1042922026198378
 20
0.10660298089645545
 10
0.1042922026198378
 20
0.10660298089645544
 10
0.10427981138326677
 20
0.10662603326292239
 10
0.10426947644521341
 20
0.10665007787560214
 10
0.10426127646079673
 20
0.10667493174047367
 10
0.10425527383684945
 20
0.10670040570461813
 10
0.10425151425696425
 20
0.10672630589578677
 10
0.10425002633381418
 20
0.10675243519788587
 10
0.10425000000000001
 20
0.10675641006832802
 10
0.10425000000000001
 20
0.10683969938138789
 10
0.10425114159057249
 20
0.10686584610421218
 10
0.10425455767409635
 20
0.10689179383468797
 10
0.10426022225211329
 20
0.10691734509491864
 10
0.10426809221376424
 20
0.10694230542438558
 10
0.10427810766388901
 20
0.1069664848599101
 10
0.10429019237886467
 20
0.10698969938138789
 10
0.10430425438671331
 20
0.10701177231229321
 10
0.10432018666706432
 20
0.10703253566429385
 10
0.10433786796564404
 20
0.10705183141574386
 10
0.10435716371709404
 20
0.10706951271432358
 10
0.10437792706909468
 20
0.10708544499467458
 10
0.1044
 20
0.10709950700252321
 10
0.10442321452147779
 20
0.10711159171749889
 10
0.1044473939570023
 20
0.10712160716762366
 10
0.10447235428646924
 20
0.1071294771292746
 10
0.10449790554669992
 20
0.10713514170729155
 10
0.10452385327717571
 20
0.10713855779081541
 10
0.10455
 20
0.10713969938138788
 10
0.1045761467228243
 20
0.10713855779081541
 10
0.10460209445330008
 20
0.10713514170729155
 10
0.10462764571353075
 20
0.1071294771292746
 10
0.1046526060429977
 20
0.10712160716762366
 10
0.10467678547852222
 20
0.10711159171749889
 10
0.1047
 20
0.10709950700252323
 10
0.10472207293090531
 20
0.1070854449946746
 10
0.10474283628290597
 20
0.10706951271432358
 10
0.10476213203435597
 20
0.10705183141574386
 10
0.10477981333293569
 20
0.10703253566429385
 10
0.1047957456132867
 20
0.10701177231229321
 10
0.10480952380952381
 20
0.10699018988703608
 10
0.10480952380952382
 20
0.10699018988703608
 10
0.10509159737440096
 20
0.10654926331560745
 10
0.10541102684703346
 20
0.10613459893395881
 10
0.10576538117625779
 20
0.10574935258841572
 10
0.10615196351166355
 20
0.10539645623628588
 10
0.1065678317282535
 20
0.10507859563189362
 10
0.1070098208177913
 20
0.10479818988636785
 10
0.10747456697642528
 20
0.10455737305674564
 10
0.1079585332052668
 20
0.10435797790450961
 10
0.1084580362290876
 20
0.10420152194716635
 10
0.10896927452826823
 20
0.10408919590902191
 10
0.10948835727065778
 20
0.10402185465905092
 10
0.11001133392315596
 20
0.1040000107048274
 10
0.11053422431765532
 20
0.10402383029203273
 10
0.11105304894252385
 20
0.10409313213922561
 10
0.11156385922909144
 20
0.10420738881750333
 10
0.11206276760264162
 20
0.1043657307645541
 10
0.11254597706920257
 20
0.1045669529025514
 10
0.1130098101129639
 20
0.10480952380952381
 10
0.11345073668439255
 20
0.10509159737440096
 10
0.11386540106604118
 20
0.10541102684703346
 10
0.11425064741158426
 20
0.10576538117625778
 10
0.11460354376371412
 20
0.10615196351166353
 10
0.11492140436810638
 20
0.10656783172825349
 10
0.11520181011363215
 20
0.1070098208177913
 10
0.11544262694325436
 20
0.10747456697642527
 10
0.11564202209549039
 20
0.1079585332052668
 10
0.11579847805283365
 20
0.10845803622908759
 10
0.11591080409097809
 20
0.10896927452826823
 10
0.11597814534094908
 20
0.10948835727065778
 10
0.1159999892951726
 20
0.11001133392315596
 10
0.11597616970796727
 20
0.1105342243176553
 10
0.11590686786077439
 20
0.11105304894252385
 10
0.11579261118249667
 20
0.11156385922909144
 10
0.1156342692354459
 20
0.11206276760264162
 10
0.1154330470974486
 20
0.11254597706920257
 10
0.11519047619047619
 20
0.1130098101129639
 10
0.11490840262559904
 20
0.11345073668439255
 10
0.11458897315296654
 20
0.11386540106604118
 10
0.11423461882374222
 20
0.11425064741158428
 10
0.11384803648833647
 20
0.11460354376371412
 10
0.11343216827174651
 20
0.11492140436810638
 10
0.1129901791822087
 20
0.11520181011363215
 10
0.11252543302357473
 20
0.11544262694325434
 10
0.1120414667947332
 20
0.11564202209549039
 10
0.11154196377091241
 20
0.11579847805283365
 10
0.11103072547173179
 20
0.11591080409097809
 10
0.11051164272934223
 20
0.11597814534094908
 10
0.10998866607684404
 20
0.1159999892951726
 10
0.1094657756823447
 20
0.11597616970796729
 10
0.10894695105747616
 20
0.11590686786077439
 10
0.10843614077090857
 20
0.11579261118249667
 10
0.10793723239735839
 20
0.1156342692354459
 10
0.10745402293079744
 20
0.1154330470974486
 10
0.1069901898870361
 20
0.11519047619047619
 10
0.10654926331560746
 20
0.11490840262559904
 10
0.10613459893395882
 20
0.11458897315296654
 10
0.10574935258841574
 20
0.11423461882374222
 10
0.1053964562362859
 20
0.11384803648833647
 10
0.10507859563189363
 20
0.11343216827174651
 10
0.10479818988636785
 20
0.11299017918220872
 10
0.10455737305674566
 20
0.11252543302357475
 10
0.10435797790450962
 20
0.11204146679473322
 10
0.10420152194716635
 20
0.11154196377091241
 10
0.10408919590902192
 20
0.11103072547173179
 10
0.10402185465905092
 20
0.11051164272934223
 10
0.10400000000000001
 20
0.11
 76
1
 52
0.0
 41
1.0
 77
0
 78
0
 11
0.0
 21
0.0
 99
0
450
0
451
0
460
0.0
461
0.0
452
0
462
0.0
453
0
470

  0
ENDSEC
  0
SECTION
  2
OBJECTS
  0
DICTIONARY
  5
A
330
0
100
AcDbDictionary
281
1
  3
ACAD_COLOR
350
B
  3
ACAD_GROUP
350
C
  3
ACAD_LAYOUT
350
D
  3
ACAD_MATERIAL
350
E
  3
ACAD_MLEADERSTYLE
350
F
  3
ACAD_MLINESTYLE
350
10
  3
ACAD_PLOTSETTINGS
350
11
  3
ACAD_PLOTSTYLENAME
350
12
  3
ACAD_SCALELIST
350
14
  3
ACAD_TABLESTYLE
350
15
  3
ACAD_VISUALSTYLE
350
16
  3
EZDXF_META
350
2D
  0
DICTIONARY
  5
B
330
A
100
AcDbDictionary
281
1
  0
DICTIONARY
  5
C
330
A
100
AcDbDictionary
281
1
  0
DICTIONARY
  5
D
330
A
100
AcDbDictionary
281
1
  3
Model
350
1A
  3
Layout1
350
1E
  0
DICTIONARY
  5
E
330
A
100
AcDbDictionary
281
1
  3
ByBlock
350
1F
  3
ByLayer
350
20
  3
Global
350
21
  0
DICTIONARY
  5
F
330
A
100
AcDbDictionary
281
1
  3
Standard
350
2C
  0
DICTIONARY
  5
10
330
A
100
AcDbDictionary
281
1
  3
Standard
350
22
  0
DICTIONARY
  5
11
330
A
100
AcDbDictionary
281
1
  0
ACDBDICTIONARYWDFLT
  5
12
330
A
100
AcDbDictionary
281
1
  3
Normal
350
13
100
AcDbDictionaryWithDefault
340
13
  0
ACDBPLACEHOLDER
  5
13
330
12
  0
DICTIONARY
  5
14
330
A
100
AcDbDictionary
281
1
  0
DICTIONARY
  5
15
330
A
100
AcDbDictionary
281
1
  0
DICTIONARY
  5
16
330
A
100
AcDbDictionary
281
1
  0
LAYOUT
  5
1A
330
D
100
AcDbPlotSettings
  1

  2
Adobe PDF
  4
A3
  6

 40
7.5
 41
20.0
 42
7.5
 43
20.0
 44
420.0
 45
297.0
 46
0.0
 47
0.0
 48
0.0
 49
0.0
140
0.0
141
0.0
142
1.0
143
1.0
 70
1024
 72
1
 73
1
 74
5
  7

 75
16
 76
0
 77
2
 78
300
147
1.0
148
0.0
149
0.0
100
AcDbLayout
  1
Model
 70
1
 71
0
 10
0.0
 20
0.0
 11
420.0
 21
297.0
 12
0.0
 22
0.0
 32
0.0
 14
1e+20
 24
1e+20
 34
1e+20
 15
-1e+20
 25
-1e+20
 35
-1e+20
146
0.0
 13
0.0
 23
0.0
 33
0.0
 16
1.0
 26
0.0
 36
0.0
 17
0.0
 27
1.0
 37
0.0
 76
1
330
17
  0
LAYOUT
  5
1E
330
D
100
AcDbPlotSettings
  1

  2
Adobe PDF
  4
A3
  6

 40
7.5
 41
20.0
 42
7.5
 43
20.0
 44
420.0
 45
297.0
 46
0.0
 47
0.0
 48
0.0
 49
0.0
140
0.0
141
0.0
142
1.0
143
1.0
 70
0
 72
1
 73
1
 74
5
  7

 75
16
 76
0
 77
2
 78
300
147
1.0
148
0.0
149
0.0
100
AcDbLayout
  1
Layout1
 70
1
 71
1
 10
0.0
 20
0.0
 11
420.0
 21
297.0
 12
0.0
 22
0.0
 32
0.0
 14
1e+20
 24
1e+20
 34
1e+20
 15
-1e+20
 25
-1e+20
 35
-1e+20
146
0.0
 13
0.0
 23
0.0
 33
0.0
 16
1.0
 26
0.0
 36
0.0
 17
0.0
 27
1.0
 37
0.0
 76
1
330
1B
  0
MATERIAL
  5
1F
102
{ACAD_REACTORS
330
E
102
}
330
E
100
AcDbMaterial
  1
ByBlock
  2

 70
0
 40
1.0
 71
1
 41
1.0
 91
-1023410177
 42
1.0
 72
1
  3

 73
1
 74
1
 75
1
 44
0.5
 73
0
 45
1.0
 46
1.0
 77
1
  4

 78
1
 79
1
170
1
 48
1.0
171
1
  6

172
1
173
1
174
1
140
1.0
141
1.0
175
1
  7

176
1
177
1
178
1
143
1.0
179
1
  8

270
1
271
1
272
1
145
1.0
146
1.0
273
1
  9

274
1
275
1
276
1
 42
1.0
 72
1
  3

 73
1
 74
1
 75
1
 94
63
  0
MATERIAL
  5
20
102
{ACAD_REACTORS
330
E
102
}
330
E
100
AcDbMaterial
  1
ByLayer
  2

 70
0
 40
1.0
 71
1
 41
1.0
 91
-1023410177
 42
1.0
 72
1
  3

 73
1
 74
1
 75
1
 44
0.5
 73
0
 45
1.0
 46
1.0
 77
1
  4

 78
1
 79
1
170
1
 48
1.0
171
1
  6

172
1
173
1
174
1
140
1.0
141
1.0
175
1
  7

176
1
177
1
178
1
143
1.0
179
1
  8

270
1
271
1
272
1
145
1.0
146
1.0
273
1
  9

274
1
275
1
276
1
 42
1.0
 72
1
  3

 73
1
 74
1
 75
1
 94
63
  0
MATERIAL
  5
21
102
{ACAD_REACTORS
330
E
102
}
330
E
100
AcDbMaterial
  1
Global
  2

 70
0
 40
1.0
 71
1
 41
1.0
 91
-1023410177
 42
1.0
 72
1
  3

 73
1
 74
1
 75
1
 44
0.5
 73
0
 45
1.0
 46
1.0
 77
1
  4

 78
1
 79
1
170
1
 48
1.0
171
1
  6

172
1
173
1
174
1
140
1.0
141
1.0
175
1
  7

176
1
177
1
178
1
143
1.0
179
1
  8

270
1
271
1
272
1
145
1.0
146
1.0
273
1
  9

274
1
275
1
276
1
 42
1.0
 72
1
  3

 73
1
 74
1
 75
1
 94
63
  0
MLINESTYLE
  5
22
102
{ACAD_REACTORS
330
10
102
}
330
10
100
AcDbMlineStyle
  2
Standard
 70
0
  3

 62
256
 51
90.0
 52
90.0
 71
2
 49
0.5
 62
256
  6
BYLAYER
 49
-0.5
 62
256
  6
BYLAYER
  0
MLEADERSTYLE
  5
2C
102
{ACAD_REACTORS
330
F
102
}
330
F
100
AcDbMLeaderStyle
179
2
170
2
171
1
172
0
 90
2
 40
0.0
 41
0.0
173
1
 91
-1056964608
 92
-2
290
1
 42
2.0
291
1
 43
8.0
  3
Standard
 44
4.0
300

342
29
174
1
175
1
176
0
178
1
 93
-1056964608
 45
4.0
292
0
297
0
 46
4.0
 94
-1056964608
 47
1.0
 49
1.0
140
1.0
294
1
141
0.0
177
0
142
1.0
295
0
296
0
143
3.75
271
0
272
9
273
9
  0
DICTIONARY
  5
2D
330
A
100
AcDbDictionary
280
1
281
1
  3
CREATED_BY_EZDXF
350
2E
  3
WRITTEN_BY_EZDXF
350
32
  0
DICTIONARYVAR
  5
2E
330
2D
100
DictionaryVariables
280
0
  1
0.17.2 @ 2022-04-05T23:10:55.567235+00:00
  0
DICTIONARYVAR
  5
32
330
2D
100
DictionaryVariables
280
0
  1
0.17.2 @ 2022-04-05T23:14:26.616628+00:00
  0
ENDSEC
  0
EOF
